# xmcd CD database file
#
# Track frame offsets:
#	150
#	16344
#	29486
#	48877
#	63129
#	77505
#	98666
#	119093
#	142865
#	158208
#	178009
#	197486
#	214683
#
# Disc length: 3002 seconds
#
# Revision: 0
# Processed by: cddbd v1.5.2PL0 Copyright (c) Steve Scherf et al.
# Submitted via: CDex 1.51
#
DISCID=a30bb80d
DTITLE=brownbird rudy relic - anti-stereo acoustic holler blues
DYEAR=1543
DGENRE=Blues
TTITLE0=stranger here blues
TTITLE1=Sepia Sheik
TTITLE2=Change your way
TTITLE3=Jump up brownbird
TTITLE4=Afraid of the blood
TTITLE5=Hard to tell,Crying.Brooding.
TTITLE6=Cry no more
TTITLE7=Your tricks aint't working
TTITLE8=Lonely when you're here
TTITLE9=This lonely brownbird
TTITLE10=Your special rider gal
TTITLE11=My wrists
TTITLE12=Give my heart a wash
EXTD=YEAR: 1543
EXTT0=
EXTT1=
EXTT2=
EXTT3=
EXTT4=
EXTT5=
EXTT6=
EXTT7=
EXTT8=
EXTT9=
EXTT10=
EXTT11=
EXTT12=
PLAYORDER=
